<?xml version="1.0" encoding="UTF-8"?> <svg xmlns="http://www.w3.org/2000/svg" width="178" height="23" viewBox="0 0 178 23" fill="none"><path d="M0.6864 22V4.95714H9.65498C12.9 4.95714 14.5609 7.02681 14.5609 9.3009C14.5609 11.4472 13.2322 12.8781 11.6224 13.2103C13.4366 13.4913 14.893 15.2544 14.893 17.4007C14.893 19.9559 13.1811 22 9.93605 22H0.6864ZM4.31472 11.7794H8.86289C10.0894 11.7794 10.8559 11.0128 10.8559 9.93968C10.8559 8.86652 10.0894 8.07442 8.86289 8.07442H4.31472V11.7794ZM4.31472 18.8572H8.99064C10.3704 18.8572 11.1881 18.1162 11.1881 16.8897C11.1881 15.8165 10.4215 14.8967 8.99064 14.8967H4.31472V18.8572ZM27.2622 22L23.9149 15.9443H21.2576V22H17.6293V4.95714H25.6013C29.153 4.95714 31.3249 7.28233 31.3249 10.4507C31.3249 13.4658 29.4341 15.0755 27.5943 15.5099L31.4271 22H27.2622ZM27.6199 10.4507C27.6199 9.01983 26.5212 8.15108 25.0647 8.15108H21.2576V12.7504H25.0647C26.5212 12.7504 27.6199 11.8816 27.6199 10.4507ZM33.2304 13.4913C33.2304 8.35549 36.9865 4.67607 42.1224 4.67607C47.2838 4.67607 51.0399 8.35549 51.0399 13.4913C51.0399 18.6272 47.2838 22.3066 42.1224 22.3066C36.9865 22.3066 33.2304 18.6272 33.2304 13.4913ZM47.3093 13.4913C47.3093 10.2974 45.2652 7.89556 42.1224 7.89556C38.9795 7.89556 36.961 10.2974 36.961 13.4913C36.961 16.6597 38.9795 19.0871 42.1224 19.0871C45.2652 19.0871 47.3093 16.6597 47.3093 13.4913ZM65.3397 22L57.2143 10.8851V22H53.586V4.95714H57.3165L65.212 15.6632V4.95714H68.8403V22H65.3397ZM76.1356 22V8.15108H71.1531V4.95714H84.7465V8.15108H79.7895V22H76.1356ZM90.4197 3.85842C89.4488 3.85842 88.6822 3.09188 88.6822 2.12092C88.6822 1.17551 89.4488 0.408969 90.4197 0.408969C91.3907 0.408969 92.1317 1.17551 92.1317 2.12092C92.1317 3.09188 91.3907 3.85842 90.4197 3.85842ZM95.8111 3.85842C94.8657 3.85842 94.0736 3.09188 94.0736 2.12092C94.0736 1.17551 94.8657 0.408969 95.8111 0.408969C96.7821 0.408969 97.5486 1.17551 97.5486 2.12092C97.5486 3.09188 96.7821 3.85842 95.8111 3.85842ZM87.0725 22V4.95714H99.1328V8.15108H90.7008V11.7538H98.9539V14.9478H90.7008V18.8061H99.1328V22H87.0725Z" fill="black"></path><path d="M108.507 22V4.95714H115.227C120.567 4.95714 124.272 8.35549 124.272 13.4913C124.272 18.6272 120.567 22 115.227 22H108.507ZM112.135 18.8061H115.227C118.6 18.8061 120.567 16.3787 120.567 13.4913C120.567 10.4763 118.727 8.15108 115.227 8.15108H112.135V18.8061ZM126.029 13.4913C126.029 8.35549 129.785 4.67607 134.921 4.67607C140.083 4.67607 143.839 8.35549 143.839 13.4913C143.839 18.6272 140.083 22.3066 134.921 22.3066C129.785 22.3066 126.029 18.6272 126.029 13.4913ZM140.108 13.4913C140.108 10.2974 138.064 7.89556 134.921 7.89556C131.778 7.89556 129.76 10.2974 129.76 13.4913C129.76 16.6597 131.778 19.0871 134.921 19.0871C138.064 19.0871 140.108 16.6597 140.108 13.4913ZM145.567 13.4913C145.567 8.09997 149.656 4.67607 154.638 4.67607C158.19 4.67607 160.413 6.46468 161.69 8.48325L158.675 10.1185C157.909 8.91762 156.452 7.89556 154.638 7.89556C151.546 7.89556 149.298 10.2719 149.298 13.4913C149.298 16.7108 151.546 19.0871 154.638 19.0871C156.146 19.0871 157.576 18.4228 158.266 17.784V15.7399H153.769V12.5715H161.895V19.1127C160.157 21.0546 157.73 22.3322 154.638 22.3322C149.656 22.3322 145.567 18.8572 145.567 13.4913ZM163.625 19.5982L165.593 16.8386C166.794 18.0906 168.659 19.1382 171.01 19.1382C173.003 19.1382 173.974 18.2184 173.974 17.2474C173.974 15.9954 172.389 15.6377 170.524 15.1777C167.739 14.539 164.162 13.7724 164.162 9.88858C164.162 7.05236 166.615 4.70162 170.626 4.70162C173.335 4.70162 175.583 5.51927 177.27 7.07791L175.251 9.73527C173.871 8.4577 172.032 7.87001 170.294 7.87001C168.736 7.87001 167.867 8.5599 167.867 9.58196C167.867 10.6807 169.425 11.0384 171.265 11.4728C174.076 12.1371 177.653 12.9803 177.653 16.8386C177.653 19.9559 175.43 22.3066 170.831 22.3066C167.56 22.3066 165.209 21.2079 163.625 19.5982Z" fill="#27AE60"></path></svg> 