<?xml version="1.0" encoding="UTF-8"?> <svg xmlns="http://www.w3.org/2000/svg" width="75" height="75" viewBox="0 0 75 75" fill="none"><rect width="75" height="75" fill="#1E1E1E"></rect><g clip-path="url(#clip0_1_8)"><mask id="path-1-inside-1_1_8" fill="white"><path d="M-559 -1121H749V1049H-559V-1121Z"></path></mask><path d="M-559 -1121H749V1049H-559V-1121Z" fill="white"></path><g clip-path="url(#clip1_1_8)"><path fill-rule="evenodd" clip-rule="evenodd" d="M37.35 43.575C37.9803 43.4459 38.5884 43.2257 39.1552 42.9214C40.3667 42.2407 41.426 41.3191 42.2677 40.2135C42.3686 40.1202 42.4491 40.0071 42.5042 39.8812C42.5593 39.7553 42.5877 39.6194 42.5877 39.482C42.5877 39.3446 42.5593 39.2087 42.5042 39.0829C42.4491 38.957 42.3686 38.8439 42.2677 38.7506C42.1722 38.6537 42.0583 38.5767 41.9327 38.5242C41.8072 38.4716 41.6724 38.4446 41.5363 38.4446C41.4002 38.4446 41.2654 38.4716 41.1399 38.5242C41.0143 38.5767 40.9004 38.6537 40.8049 38.7506C39.8406 39.3293 38.7897 39.7496 37.6924 39.9956C37.1361 40.1618 36.5607 40.256 35.9805 40.2757C34.9394 40.4275 33.88 40.171 33.0236 39.5599C32.8543 39.3907 32.6248 39.2957 32.3855 39.2957C32.1462 39.2957 31.9167 39.3907 31.7475 39.5599C31.6598 39.6414 31.5899 39.7402 31.5421 39.8499C31.4943 39.9597 31.4696 40.0782 31.4696 40.1979C31.4696 40.3177 31.4943 40.4361 31.5421 40.5459C31.5899 40.6557 31.6598 40.7544 31.7475 40.836C32.1032 41.5219 32.5963 42.1273 33.196 42.6146C33.7957 43.1019 34.4892 43.4606 35.2335 43.6684C35.9369 43.7987 36.6608 43.7668 37.35 43.575Z" fill="#27AE60"></path><path fill-rule="evenodd" clip-rule="evenodd" d="M29.4131 29.911C30.2431 29.6903 31.1241 29.7674 31.9031 30.1289C32.111 30.2937 32.3746 30.3716 32.6387 30.3464C32.9028 30.3212 33.1469 30.1948 33.3199 29.9937C33.4928 29.7925 33.5813 29.5323 33.5667 29.2674C33.5521 29.0025 33.4356 28.7536 33.2415 28.5727C32.7684 27.9569 32.167 27.4515 31.4791 27.0914C30.7911 26.7313 30.0331 26.5252 29.2575 26.4873C28.8552 26.4258 28.4459 26.4258 28.0436 26.4873C27.4573 26.6016 26.9041 26.8462 26.4251 27.2032C25.3837 27.9673 24.6364 29.0662 24.3086 30.3157C24.2535 30.4219 24.2198 30.538 24.2094 30.6573C24.1991 30.7766 24.2124 30.8968 24.2485 31.011C24.2847 31.1251 24.3429 31.2311 24.42 31.3227C24.4971 31.4144 24.5914 31.4899 24.6977 31.5451C24.804 31.6003 24.9201 31.634 25.0394 31.6443C25.1587 31.6546 25.2788 31.6413 25.393 31.6052C25.5072 31.5691 25.6131 31.5108 25.7047 31.4338C25.7964 31.3567 25.872 31.2623 25.9271 31.1561C26.5367 30.6869 27.2533 30.3767 28.0125 30.2534C28.4579 30.0645 28.9308 29.9488 29.4131 29.911Z" fill="#27AE60"></path><path fill-rule="evenodd" clip-rule="evenodd" d="M41.8943 30.4091C42.3249 30.1066 42.7835 29.846 43.2638 29.6309C43.6604 29.4981 44.0661 29.3941 44.4776 29.3197C44.7362 29.2898 44.9973 29.2898 45.2558 29.3197H45.816C46.0842 29.3075 46.3513 29.3609 46.5941 29.4753C46.9988 29.7243 47.3411 30.0044 47.7458 30.2223C47.8459 30.3143 47.9632 30.3856 48.0909 30.4323C48.2186 30.4789 48.3543 30.4999 48.4901 30.4942C48.6259 30.4884 48.7593 30.4559 48.8826 30.3986C49.0059 30.3412 49.1167 30.2602 49.2086 30.1601C49.3006 30.0599 49.372 29.9426 49.4186 29.8149C49.4652 29.6872 49.4863 29.5516 49.4805 29.4157C49.4747 29.2799 49.4422 29.1465 49.3849 29.0232C49.3276 28.8999 49.2465 28.7892 49.1464 28.6972C48.7729 28.2303 48.4928 27.7323 48.1193 27.2966C47.7494 26.9074 47.3183 26.5815 46.8431 26.3317C46.2963 26.1014 45.709 25.9828 45.1157 25.9828C44.5224 25.9828 43.9351 26.1014 43.3883 26.3317C43.0817 26.4483 42.7974 26.6168 42.5479 26.8297C41.6303 27.5698 40.9044 28.52 40.4314 29.5998C40.2695 29.7728 40.1794 30.0009 40.1794 30.2379C40.1794 30.4748 40.2695 30.7029 40.4314 30.8759C40.5482 30.976 40.6887 31.0446 40.8395 31.0751C40.9903 31.1056 41.1464 31.097 41.293 31.0503C41.4395 31.0035 41.5717 30.92 41.677 30.8078C41.7822 30.6956 41.857 30.5583 41.8943 30.4091Z" fill="#27AE60"></path><path fill-rule="evenodd" clip-rule="evenodd" d="M47.2478 36.1049C47.0131 35.7363 46.742 35.3922 46.4386 35.0778C46.1316 34.7747 45.7863 34.5132 45.4114 34.2997C44.5188 33.774 43.5379 33.4154 42.5168 33.2414C42.2939 33.1344 42.0376 33.1201 41.8042 33.2018C41.5708 33.2835 41.3793 33.4545 41.2718 33.6772C41.172 33.893 41.1583 34.1387 41.2335 34.3643C41.3087 34.5899 41.4671 34.7782 41.6764 34.891C42.2584 35.5084 42.7991 36.1635 43.2949 36.8519L44.0108 37.5989L44.7889 38.2837C45.4737 38.8439 46.1896 39.3108 46.8121 39.9022C46.8848 40.0175 46.9798 40.1172 47.0915 40.1955C47.2032 40.2738 47.3294 40.329 47.4627 40.358C47.596 40.3869 47.7337 40.3891 47.8678 40.3643C48.0019 40.3394 48.1297 40.2882 48.2438 40.2134C48.4739 40.0557 48.6324 39.8135 48.6848 39.5396C48.7373 39.2656 48.6795 38.9821 48.5239 38.7505C48.2005 37.823 47.7724 36.9354 47.2478 36.1049Z" fill="#27AE60"></path><path fill-rule="evenodd" clip-rule="evenodd" d="M31.9966 33.9262C31.8236 33.7643 31.5955 33.6742 31.3585 33.6742C31.1216 33.6742 30.8935 33.7643 30.7205 33.9262C29.7918 34.4068 28.9416 35.0261 28.1993 35.7626C27.9043 36.1146 27.6535 36.5013 27.4523 36.9142C27.2377 37.3156 27.0805 37.7452 26.9855 38.1903C26.768 39.2127 26.7051 40.2618 26.7987 41.3028C26.7616 41.5752 26.8341 41.8513 27.0005 42.0701C27.1669 42.289 27.4134 42.4329 27.6858 42.47C27.9582 42.5072 28.2342 42.4346 28.4531 42.2682C28.672 42.1019 28.8158 41.8554 28.853 41.583C29.1928 40.7868 29.6098 40.0257 30.098 39.3108C30.347 38.8128 30.6271 38.3771 30.845 37.8791C31.0628 37.3811 31.4675 36.105 31.9966 35.1712C32.0794 35.0901 32.1452 34.9932 32.1901 34.8863C32.235 34.7794 32.2582 34.6647 32.2582 34.5487C32.2582 34.4328 32.235 34.318 32.1901 34.2111C32.1452 34.1042 32.0794 34.0074 31.9966 33.9262Z" fill="#27AE60"></path><path fill-rule="evenodd" clip-rule="evenodd" d="M52.6636 57.7369C52.7419 58.409 52.7419 59.0879 52.6636 59.76C52.6783 60.867 52.3214 61.947 51.6499 62.8272C50.9785 63.7074 50.0312 64.3371 48.9597 64.6155C47.4093 65.1945 45.7291 65.3345 44.1042 65.0201C42.6194 64.742 41.1829 64.2492 39.8401 63.5572L39.6534 62.6235H39.9335C41.5717 62.1012 43.0839 61.2453 44.3749 60.1096C45.6659 58.974 46.7077 57.5832 47.4346 56.025V55.8382C48.6485 52.7257 46.3452 52.7257 44.9135 55.1224C44.5989 55.6267 44.2451 56.1055 43.8552 56.5541C42.5638 57.9183 40.9129 58.8894 39.0931 59.3554C38.2829 59.6174 37.4249 59.6974 36.5803 59.5898C35.7356 59.4822 34.9251 59.1896 34.2065 58.7329C33.6846 58.4266 33.1853 58.0834 32.7125 57.7057C32.2456 57.3011 31.7476 56.8965 31.343 56.4919L31.1251 56.025C29.0397 53.2237 27.1411 54.1264 28.6351 56.8031C28.8345 57.177 29.0527 57.5406 29.2887 57.8925C29.7107 58.4899 30.168 59.0616 30.6582 59.6044C31.177 60.1454 31.7279 60.6547 32.3079 61.1295C33.6823 62.1217 35.3147 62.6946 37.0077 62.7791C36.3726 63.4749 35.6745 64.1105 34.9224 64.6777C34.0728 65.3077 33.0953 65.7433 32.0589 65.9539C31.1474 66.1437 30.2064 66.1421 29.2956 65.9492C28.3848 65.7563 27.5239 65.3763 26.7676 64.8334C25.6664 64.2307 24.7631 63.3223 24.1666 62.2178C23.5702 61.1132 23.306 59.8597 23.4061 58.6084C22.9081 55.4959 21.3207 56.6475 20.5426 59.8222V60.9427C20.7009 62.6479 21.3251 64.2766 22.3469 65.6509C23.3687 67.0251 24.7487 68.0919 26.336 68.7345C27.9233 69.3772 29.6568 69.5709 31.3469 69.2946C33.0369 69.0182 34.6184 68.2825 35.9184 67.1677C36.2803 66.8785 36.6138 66.5554 36.9144 66.2029V69.0352C37.07 70.5292 37.319 71.9921 37.3501 73.4861C37.3233 73.7574 37.4022 74.0285 37.5703 74.2431C37.7385 74.4576 37.9829 74.599 38.2527 74.6377C38.5287 74.664 38.804 74.5809 39.0194 74.4062C39.2347 74.2316 39.373 73.9795 39.4044 73.704C39.8688 72.228 40.2225 70.7195 40.4626 69.1909V67.23V66.3585C41.8531 67.1327 43.3542 67.6891 44.9135 68.0081C46.6314 68.4265 48.4246 68.4265 50.1425 68.0081C51.6126 67.6569 52.9498 66.8884 53.9935 65.7951C55.0371 64.7018 55.7426 63.3302 56.0251 61.8454C56.1343 61.0502 56.1343 60.2439 56.0251 59.4487C55.0291 54.8422 52.9126 54.9356 52.6636 57.7369Z" fill="#219653"></path><path fill-rule="evenodd" clip-rule="evenodd" d="M67.4167 66.1095C66.3697 63.9412 65.152 61.8597 63.7751 59.8844C62.8511 58.5395 61.8095 57.2791 60.6626 56.1183C56.7032 52.5511 51.8341 50.1489 46.5941 49.1775C48.3845 48.4006 50.0435 47.3506 51.5118 46.0649C51.5118 46.0649 51.5118 45.3491 52.8813 46.0649C53.6536 46.5595 54.5255 46.8773 55.4348 46.9957C56.3441 47.114 57.2684 47.03 58.1415 46.7497C59.7836 46.1012 61.2081 45.0003 62.25 43.575C63.4576 42.0616 64.3087 40.2956 64.74 38.4082C65.2082 36.6319 65.4178 34.7974 65.3625 32.9613C65.1375 31.5122 64.8257 30.0778 64.4287 28.6661C64.3526 28.2232 64.3526 27.7706 64.4287 27.3277L65.3625 25.7092C65.91 24.5911 66.3177 23.4098 66.5763 22.1921C66.8659 20.927 66.9396 19.6222 66.7942 18.3326C66.4234 15.3568 64.9724 12.6209 62.7168 10.6447C60.5107 8.68835 57.7668 7.44115 54.8422 7.06533C53.428 7.08285 52.0195 7.24977 50.6403 7.56333H50.1112C49.9245 7.2832 49.6132 6.75408 49.4887 6.59845L47.1855 4.23295C45.6121 2.86864 43.796 1.81274 41.832 1.12045C38.3944 -0.108821 34.672 -0.3036 31.125 0.5602C29.5864 0.916088 28.1007 1.47062 26.7052 2.20983C25.4587 2.88214 24.2808 3.67439 23.1881 4.57533C22.0315 5.4865 20.9868 6.53125 20.0756 7.68783L18.3326 10.8003L15.5625 11.5473C14.4485 11.9662 13.4003 12.5427 12.45 13.2592C10.4792 14.829 8.9729 16.9056 8.09246 19.2663C7.51154 20.6208 7.24548 22.0894 7.31434 23.5616C7.37713 24.5015 7.58719 25.4258 7.93684 26.3006C8.73064 27.8481 9.38679 29.4624 9.89771 31.125C9.74209 31.4673 9.18184 32.7746 9.08846 33.117C8.93346 34.378 8.93346 35.6532 9.08846 36.9142C9.20886 38.2117 9.58998 39.4715 10.209 40.6181C10.7013 41.6285 11.4026 42.5227 12.2665 43.2417C13.1304 43.9608 14.1371 44.4881 15.2201 44.7888C16.2132 44.9745 17.2365 44.9156 18.2017 44.6174C19.167 44.3191 20.0451 43.7904 20.7603 43.077C23.1416 46.1621 26.3946 48.461 30.0978 49.6754L29.1018 49.7999C26.4455 50.5604 23.8786 51.6039 21.4451 52.9124C18.2364 54.6521 15.3088 56.8661 12.7612 59.4798C10.1554 62.0797 8.2403 65.2894 7.18984 68.8173C7.16543 69.0373 7.21997 69.2588 7.34374 69.4424C7.4675 69.6259 7.65243 69.7595 7.86554 69.8193C8.07866 69.8791 8.30609 69.8613 8.50728 69.769C8.70847 69.6767 8.87032 69.5159 8.96396 69.3153C10.0596 66.1906 11.9599 63.41 14.4731 61.254C21.0484 55.6325 29.3014 52.3488 37.9413 51.9165C49.4265 51.2628 57.8613 55.7448 62.4367 62.0632C63.5818 63.6318 64.6216 65.2747 65.5492 66.9809C65.6056 67.1041 65.6865 67.2144 65.7869 67.3053C65.8874 67.3961 66.0053 67.4655 66.1335 67.5092C66.2617 67.5529 66.3974 67.57 66.5324 67.5594C66.6674 67.5489 66.7989 67.5109 66.9187 67.4478C67.1591 67.3329 67.3454 67.1291 67.4384 66.8793C67.5313 66.6296 67.5235 66.3536 67.4167 66.1095ZM15.5625 42.9213C14.7873 42.6773 14.0715 42.2746 13.4606 41.7387C12.8497 41.2028 12.3571 40.5456 12.0142 39.8088C11.5536 38.8985 11.2886 37.9019 11.2361 36.8831C11.1536 35.8405 11.227 34.7915 11.454 33.7706C11.454 33.4593 11.9831 32.7123 12.1698 32.2143C12.3556 31.8814 12.4521 31.5062 12.45 31.125C12.0045 29.2051 11.3577 27.3376 10.5202 25.5536C10.2844 24.9046 10.1581 24.2209 10.1467 23.5304C10.1263 22.4569 10.3498 21.3926 10.8003 20.4179C11.2205 19.3944 11.7753 18.4314 12.45 17.5544C13.0272 16.8747 13.6858 16.2684 14.4108 15.7492C15.1115 15.2206 15.888 14.8008 16.7141 14.5042C17.2432 14.3174 18.1147 14.2552 18.8306 14.0373C19.322 13.9188 19.7937 13.7301 20.2312 13.4771C20.7579 13.1042 21.2028 12.6276 21.5385 12.0765C22.0365 11.3295 22.3477 10.3646 22.8457 9.74208C23.5513 8.79754 24.378 7.94989 25.3046 7.22095C26.2763 6.46828 27.3187 5.81158 28.4171 5.26008C29.5507 4.6686 30.7529 4.21909 31.9965 3.9217C33.2411 3.6333 34.5162 3.49743 35.7937 3.51708C37.4697 3.50463 39.1347 3.78915 40.7115 4.35745C42.2711 4.9241 43.7156 5.76763 44.9756 6.84745L46.812 8.68383C46.9987 8.93283 47.3411 9.58645 47.6523 9.95995C47.9028 10.256 48.2096 10.4994 48.555 10.6758C49.1217 10.8893 49.7235 10.9949 50.3291 10.9871C51.6675 10.9871 53.2237 10.2401 54.4998 10.3646C56.7968 10.5881 58.9698 11.5116 60.7248 13.0102C62.4166 14.4833 63.5215 16.5163 63.8373 18.7372C63.9925 19.6958 63.9925 20.6732 63.8373 21.6318C63.6394 22.6397 63.3261 23.6214 62.9036 24.5576C62.6857 25.0244 62.1566 25.5536 61.9076 26.0827C61.7746 26.348 61.6803 26.631 61.6275 26.9231C61.5038 27.6754 61.5038 28.4429 61.6275 29.1952C62.0675 30.4749 62.4108 31.7858 62.6546 33.117C62.7817 34.742 62.6769 36.3769 62.3433 37.9725C62.0234 39.5191 61.3643 40.9754 60.4136 42.2366C59.628 43.2895 58.5434 44.0813 57.3011 44.5087C54.1886 45.4736 53.4105 44.7577 52.6946 44.2597C54.5977 41.6151 55.8361 38.5511 56.3051 35.3268C56.9796 31.5463 56.7881 27.662 55.7448 23.9662C55.7094 23.8353 55.6476 23.7131 55.5633 23.6069C55.479 23.5007 55.3738 23.4129 55.2544 23.3488C55.1349 23.2847 55.0036 23.2456 54.8685 23.2341C54.7334 23.2225 54.5974 23.2386 54.4687 23.2814C54.3374 23.3173 54.2145 23.379 54.1072 23.4628C53.9999 23.5466 53.9103 23.651 53.8437 23.7697C53.7771 23.8885 53.7348 24.0193 53.7192 24.1545C53.7036 24.2898 53.715 24.4268 53.7528 24.5576C53.7528 24.5576 53.7528 24.5576 53.1303 24.5576C50.8975 24.2263 48.7263 23.5655 46.6875 22.5967C44.7082 21.5935 42.9095 20.2682 41.3651 18.6749C40.3916 17.487 39.3525 16.3544 38.2526 15.2823C37.8727 14.9561 37.4197 14.7263 36.932 14.6125C36.4443 14.4987 35.9364 14.5043 35.4513 14.6287C35.1079 14.8213 34.8021 15.0744 34.5487 15.3757C34.1752 15.7803 33.7083 16.5584 33.5838 16.6829C33.0858 17.2743 32.5567 17.8657 31.9965 18.4259C31.4469 18.9692 30.8648 19.4785 30.2535 19.9511C28.7613 21.0957 27.074 21.9605 25.2735 22.5033C23.6413 23.005 21.9623 23.3387 20.2623 23.4993C20.2775 23.4275 20.2775 23.3533 20.2623 23.2814C20.2896 23.1627 20.2925 23.0398 20.2709 22.9199C20.2494 22.8 20.2038 22.6858 20.1369 22.584C20.07 22.4822 19.9832 22.395 19.8817 22.3277C19.7803 22.2603 19.6662 22.2142 19.5465 22.1921C19.3074 22.1458 19.0597 22.1947 18.8562 22.3285C18.6527 22.4622 18.5095 22.6701 18.4571 22.9079C17.7077 25.7764 17.29 28.7215 17.2121 31.6852C17.1638 33.7893 17.4367 35.8884 18.0213 37.9102C18.4244 39.2254 19 40.4813 19.7332 41.6452C19.2077 42.2004 18.5472 42.6099 17.8162 42.8336C17.0852 43.0572 16.3087 43.0875 15.5625 42.9213ZM33.1792 47.0921C30.361 46.6599 27.7034 45.5033 25.4664 43.7356C23.2295 41.9678 21.4899 39.6495 20.418 37.0076C19.6856 34.8645 19.3276 32.6114 19.3597 30.3468C19.4072 28.7094 19.5632 27.077 19.8266 25.4602C21.8117 25.4741 23.7931 25.2864 25.7403 24.9C27.9341 24.4854 30.0399 23.6957 31.9653 22.5656C32.7601 22.0921 33.5195 21.5616 34.2375 20.9782C34.9194 20.3638 35.5638 19.709 36.1672 19.0173C36.1672 19.0173 36.4162 18.4259 36.6341 18.0836C37.5761 19.0512 38.4399 20.0919 39.2175 21.1961C41.1776 22.8292 43.3836 24.1423 45.7537 25.0867C53.7217 28.1992 56.3051 23.4993 53.9085 34.8288C53.3558 38.1713 51.7275 41.2421 49.2708 43.575C47.036 45.3524 44.4234 46.5937 41.6337 47.2035C38.8441 47.8132 35.9518 47.7751 33.1792 47.0921Z" fill="#333333"></path></g></g><path d="M-559 1049H-553V-1121H-559H-565V1049H-559Z" fill="#27AE60" mask="url(#path-1-inside-1_1_8)"></path><defs><clipPath id="clip0_1_8"><path d="M-559 -1121H749V1049H-559V-1121Z" fill="white"></path></clipPath><clipPath id="clip1_1_8"><rect width="74.7" height="74.7" fill="white"></rect></clipPath></defs></svg> 