<?xml version="1.0" encoding="UTF-8"?> <svg xmlns="http://www.w3.org/2000/svg" width="75" height="75" viewBox="0 0 75 75" fill="none"><rect width="75" height="75" fill="#1E1E1E"></rect><g clip-path="url(#clip0_1_8)"><mask id="path-1-inside-1_1_8" fill="white"><path d="M-885 -1121H423V1049H-885V-1121Z"></path></mask><path d="M-885 -1121H423V1049H-885V-1121Z" fill="white"></path><g clip-path="url(#clip1_1_8)"><path d="M42.1743 59.5732C41.0643 58.9819 40.1463 58.0855 39.5287 56.9899C38.7093 55.9103 38.0779 54.7002 37.6612 53.4105C36.5407 49.0219 38.1903 42.9836 36.0738 37.5056C34.575 33.842 31.7996 30.8455 28.2614 29.0707C26.7857 28.2504 25.1606 27.7341 23.4819 27.5523C21.8033 27.3706 20.1053 27.527 18.4882 28.0125C15.3161 29.0102 12.5742 31.0502 10.7069 33.8017C9.76242 35.1981 8.98912 36.7029 8.4037 38.2837C7.8022 39.8508 7.37427 41.479 7.12757 43.1392C6.72294 46.6564 7.37657 50.3291 6.78519 53.5661C6.6315 54.564 6.27628 55.5201 5.74118 56.3763C5.20608 57.2324 4.50229 57.9707 3.6727 58.5461C3.27607 58.8245 2.86 59.0742 2.4277 59.2931C2.01495 59.465 1.58794 59.6004 1.15157 59.6977C0.984773 59.7289 0.827562 59.7986 0.692467 59.9013C0.557372 60.0039 0.448129 60.1368 0.373445 60.2891C0.296965 60.4384 0.25708 60.6038 0.25708 60.7716C0.25708 60.9393 0.296965 61.1047 0.373445 61.254C0.964267 62.11 1.65376 62.8935 2.4277 63.5884C3.01742 64.1315 3.73471 64.5169 4.51307 64.7089C4.63365 64.7314 4.75749 64.7299 4.8775 64.7046C4.99752 64.6792 5.11136 64.6304 5.21253 64.5611C5.31369 64.4917 5.4002 64.4031 5.4671 64.3003C5.53401 64.1975 5.58 64.0825 5.60245 63.9619C5.63887 63.7149 5.57815 63.4634 5.43304 63.2603C5.28794 63.0571 5.06975 62.9181 4.82432 62.8725C4.2802 62.6503 3.79916 62.2975 3.4237 61.8454L3.11245 61.3474H3.39257C3.94038 61.1041 4.47076 60.8233 4.97995 60.507C6.11412 59.8324 7.09733 58.9316 7.8684 57.8607C8.63947 56.7897 9.1819 55.5716 9.46194 54.282C9.78965 52.7157 9.95652 51.1201 9.95994 49.5199C10.2042 51.4244 10.84 53.2577 11.8274 54.9045C13.0254 57.0273 14.7379 58.8147 16.8074 60.1024C12.7602 61.249 9.1018 63.4763 6.22495 66.5452C5.52752 67.3647 4.91243 68.2509 4.38857 69.1909C3.60567 70.5275 2.9492 71.9342 2.4277 73.3927C2.37665 73.5069 2.34905 73.6302 2.34656 73.7552C2.34406 73.8803 2.36671 74.0045 2.41316 74.1207C2.4596 74.2368 2.52891 74.3424 2.61695 74.4312C2.705 74.52 2.80999 74.5903 2.92569 74.6377C3.04011 74.6831 3.16235 74.7053 3.28539 74.7032C3.40843 74.7011 3.52984 74.6747 3.64265 74.6256C3.75546 74.5764 3.85743 74.5054 3.94271 74.4167C4.02799 74.328 4.09489 74.2233 4.13957 74.1086C4.64444 73.0303 5.22698 71.99 5.88257 70.9961C6.49544 70.0267 7.22739 69.1379 8.06132 68.3505C10.8505 65.8138 14.2501 64.0442 17.9279 63.2149C21.4987 62.2551 25.2773 62.4071 28.7594 63.6506C30.9715 64.4607 32.9272 65.8468 34.4242 67.6657C36.0513 69.5151 37.3654 71.6178 38.3148 73.8907C38.3633 74.022 38.4372 74.1423 38.5325 74.2448C38.6277 74.3473 38.7423 74.4298 38.8697 74.4877C38.9971 74.5456 39.1346 74.5777 39.2745 74.582C39.4143 74.5864 39.5536 74.563 39.6843 74.5132C39.9443 74.4088 40.154 74.2082 40.2699 73.9532C40.3858 73.6982 40.3991 73.4083 40.3068 73.1437C39.4387 70.5538 38.1677 68.1169 36.5407 65.9227C34.8396 63.6038 32.5807 61.7517 29.9733 60.5381C29.4753 60.3514 28.9773 60.2269 28.4793 60.0712C29.3613 59.5836 30.186 58.9989 30.9382 58.3282C32.4379 56.7977 33.6597 55.0178 34.5487 53.0681C34.5487 52.8814 34.7043 52.6635 34.7977 52.4767C34.8755 53.0131 34.9899 53.5434 35.1401 54.0641C35.8489 55.9454 36.9047 57.6769 38.2526 59.1686C38.885 59.9398 39.63 60.6114 40.4624 61.1606L40.1512 61.6275C39.9095 62.012 39.5488 62.3071 39.1241 62.4679C38.8641 62.5723 38.6544 62.7729 38.5385 63.0279C38.4226 63.283 38.4093 63.5728 38.5016 63.8374C38.55 63.9686 38.624 64.0889 38.7192 64.1914C38.8145 64.2939 38.9291 64.3764 39.0564 64.4343C39.1838 64.4922 39.3214 64.5243 39.4612 64.5287C39.601 64.5331 39.7403 64.5097 39.8711 64.4599C40.5236 64.2478 41.1051 63.8602 41.5518 63.3394C42.1556 62.675 42.6494 61.9185 43.0147 61.0984C43.1377 60.7885 43.1377 60.4434 43.0147 60.1335C42.9302 59.9792 42.8097 59.8477 42.6634 59.7501C42.517 59.6525 42.3492 59.5919 42.1743 59.5732ZM32.1832 51.8854C31.3282 53.4611 30.1884 54.8647 28.8217 56.025C28.013 56.6598 27.1098 57.164 26.1449 57.519C25.1429 57.8756 24.0946 58.0853 23.0324 58.1415C22.2686 58.177 21.5035 58.1036 20.7603 57.9236C20.0407 57.7218 19.3423 57.4508 18.6749 57.1144C16.8175 56.2431 15.2113 54.9152 14.0062 53.2549C12.8549 51.7328 12.1056 49.9451 11.8274 48.057C13.8506 48.2126 15.8737 48.3682 18.0524 48.4305H22.0676C23.4059 48.4305 24.7443 48.4305 26.0827 48.1815C28.7594 47.9636 31.4051 47.6524 34.0818 47.3411C33.7695 48.9707 33.1231 50.518 32.1832 51.8854ZM28.6661 44.8511C28.7127 44.3022 28.7127 43.7504 28.6661 43.2015C28.6661 42.2055 28.2614 41.2717 28.0436 40.089C28.0198 39.8385 27.8991 39.6072 27.7073 39.4443C27.5154 39.2815 27.2675 39.2001 27.0164 39.2175C26.8949 39.2252 26.7763 39.2574 26.6675 39.3122C26.5588 39.367 26.4623 39.4432 26.3838 39.5362C26.3053 39.6293 26.2464 39.7372 26.2107 39.8536C26.175 39.97 26.1632 40.0924 26.1761 40.2135C26.0584 41.2469 25.996 42.2859 25.9893 43.326C26.0315 43.7971 26.1042 44.265 26.2072 44.7266H21.7874C20.4594 44.7266 19.1211 44.7889 17.7723 44.9134C15.1889 45.1001 12.6367 45.4114 10.0844 45.6915C10.0823 44.9841 10.1238 44.2773 10.2089 43.575C10.4892 42.1746 10.917 40.8079 11.4851 39.4976C12.0147 38.1831 12.7047 36.9391 13.5393 35.7937C14.9997 33.7253 17.0995 32.1943 19.5153 31.4362C20.6833 31.0834 21.9101 30.9678 23.1235 31.0961C24.3368 31.2243 25.5123 31.594 26.5807 32.1832C29.4594 33.5056 31.7599 35.8283 33.0547 38.7195C33.843 40.7059 34.2953 42.8096 34.3931 44.9445L28.6661 44.8511Z" fill="#333333"></path><path d="M74.3575 16.4963V4.51312C74.3197 3.60481 73.9925 2.73237 73.4238 2.02312C71.4503 1.18454 69.3413 0.71002 67.1988 0.6225C63.3082 0.249 58.1726 0 54.5309 0C53.0992 0 40.9293 0 33.8017 0.56025C31.8085 0.557489 29.8366 0.970936 28.0124 1.77412C27.711 2.03726 27.4944 2.38387 27.3899 2.77012C27.0993 4.11111 26.9326 5.47598 26.8919 6.8475C26.6118 12.45 26.7052 21.7875 26.7363 23.8417C26.7363 24.1224 26.8478 24.3916 27.0463 24.59C27.2447 24.7885 27.5139 24.9 27.7946 24.9C28.0782 24.9001 28.3506 24.7896 28.5541 24.592C28.7575 24.3944 28.8758 24.1252 28.8839 23.8417C28.8839 22.161 28.8839 16.3095 29.1952 11.205C29.1952 8.52825 29.4753 6.1005 29.6932 4.57538C29.7397 4.27146 29.802 3.97017 29.8799 3.67275H31.0004C33.6756 3.34159 36.3666 3.15457 39.0618 3.1125H54.6243C57.7368 3.1125 61.6897 3.45487 65.1446 3.79725C67.3544 4.01512 69.3153 4.26412 70.5603 4.51312H70.747C70.996 7.221 70.747 13.5394 70.747 16.1227C70.747 17.679 70.9649 23.2192 70.996 28.0125C71.033 30.0906 70.9499 32.169 70.747 34.2375C70.7604 34.3616 70.7604 34.4869 70.747 34.611C70.2802 34.611 69.3464 35.0467 68.5683 35.0779C67.4381 35.1346 66.3058 35.1346 65.1757 35.0779C61.9076 34.8911 58.3593 34.611 56.7097 34.7044C56.0244 34.6965 55.36 34.9401 54.8422 35.3891C54.0952 36.2606 53.3171 38.346 51.9476 40.6181C51.3407 41.6785 50.6206 42.6699 49.7999 43.575C49.1514 44.2826 48.3626 44.8473 47.4837 45.2331C46.6049 45.619 45.6552 45.8175 44.6954 45.816C44.4464 44.073 44.6954 39.3109 44.6954 37.2255C44.6929 36.7809 44.6194 36.3396 44.4776 35.9183C44.4101 35.7667 44.3069 35.6337 44.1768 35.5307C44.0467 35.4277 43.8936 35.3578 43.7306 35.3269C43.6077 35.3046 43.4817 35.3073 43.3599 35.3346C43.2382 35.3619 43.1231 35.4133 43.0215 35.4859C42.92 35.5584 42.834 35.6506 42.7687 35.7569C42.7033 35.8633 42.66 35.9816 42.6412 36.105C42.6412 36.105 42.6412 46.812 42.8279 47.1232C42.9221 47.3273 43.0651 47.505 43.2443 47.6407C43.4234 47.7764 43.6331 47.8659 43.8551 47.9014C44.8805 48.1247 45.9421 48.1247 46.9676 47.9014C48.6679 47.479 50.2187 46.5959 51.4496 45.3491C52.4053 44.4024 53.2606 43.3593 54.0018 42.2366C55.1846 40.4002 55.9004 38.6884 56.5541 37.7546H56.7097C58.297 37.7546 61.6897 38.1281 64.8333 38.4082C66.574 38.5342 68.3216 38.5342 70.0623 38.4082C71.1866 38.3993 72.2781 38.0282 73.1748 37.35C73.9912 35.8407 74.409 34.1481 74.3887 32.4323C74.6999 27.2344 74.3575 18.675 74.3575 16.4963Z" fill="#219653"></path><path d="M62.748 16.9631C63.1948 16.482 63.4781 15.872 63.5572 15.2201C63.5018 14.7626 63.2985 14.3357 62.9783 14.0043C62.6581 13.6728 62.2384 13.455 61.7831 13.3838C60.756 13.1036 57.5501 12.7924 55.9627 12.6056C55.3714 12.6056 52.8502 8.27927 51.7297 7.0654C51.5186 6.75911 51.226 6.51805 50.8849 6.36952C50.5439 6.221 50.168 6.17094 49.8 6.22502C49.4086 6.51561 49.098 6.90128 48.8974 7.34552C45.3802 14.0374 47.5279 12.1699 38.7817 14.1619L37.8791 14.4109C37.6279 14.4971 37.4108 14.6614 37.2596 14.8798C37.1084 15.0982 37.031 15.3593 37.0387 15.6248C37.214 16.1795 37.5241 16.6822 37.9414 17.0876C39.1241 18.3015 42.0499 21.1339 42.5479 21.8498V22.659V27.7635C42.476 28.4568 42.476 29.1556 42.5479 29.8489C42.6018 30.0479 42.6947 30.2342 42.8212 30.397C42.9478 30.5598 43.1054 30.6958 43.2849 30.7972C43.4645 30.8985 43.6624 30.9632 43.8671 30.9874C44.0719 31.0116 44.2794 30.9949 44.4776 30.9383C44.8553 30.8464 45.2209 30.7106 45.567 30.5336C46.8742 29.88 49.7066 28.2615 51.045 27.639C52.4767 28.0748 55.0912 29.7555 56.3674 30.2535C56.7449 30.4578 57.1675 30.5648 57.5968 30.5648C58.0261 30.5648 58.4487 30.4578 58.8262 30.2535C59.1164 29.9033 59.3209 29.4903 59.4236 29.0473C59.5262 28.6043 59.5242 28.1434 59.4176 27.7013C59.1686 26.3629 58.5772 23.6861 58.2971 21.9743C58.2661 21.8202 58.2661 21.6615 58.2971 21.5074C58.5434 21.1578 58.825 20.8344 59.1375 20.5425C60.2891 19.3598 61.9699 17.8658 62.748 16.9631ZM56.025 18.4883C55.4439 18.9674 54.9672 19.5606 54.6244 20.2313C54.5254 20.7244 54.5254 21.2322 54.6244 21.7253C54.6244 22.6901 55.0601 24.402 55.3402 25.9271C54.0278 25.1752 52.6267 24.5897 51.1695 24.1841C50.5853 24.1481 50.0027 24.2776 49.4887 24.5576C48.5861 24.9934 46.8742 26.0205 45.5047 26.8609V22.1921C45.4959 21.7481 45.4225 21.3078 45.2869 20.8849C43.8608 19.2644 42.3436 17.7264 40.7426 16.2784C46.5007 14.7844 46.9676 14.9711 48.5861 12.3255C49.2086 11.3295 49.9245 10.0845 50.4536 9.21302C51.792 11.0494 53.8462 14.5354 54.1886 14.8155C54.7397 15.194 55.3662 15.4488 56.025 15.5625C56.8654 15.7493 58.0481 15.936 59.1375 16.0916C58.1104 16.8075 56.9276 17.7413 56.025 18.4883Z" fill="#333333"></path></g></g><path d="M-885 1049H-879V-1121H-885H-891V1049H-885Z" fill="#27AE60" mask="url(#path-1-inside-1_1_8)"></path><defs><clipPath id="clip0_1_8"><path d="M-885 -1121H423V1049H-885V-1121Z" fill="white"></path></clipPath><clipPath id="clip1_1_8"><rect width="74.7" height="74.7" fill="white"></rect></clipPath></defs></svg> 