<?xml version="1.0" encoding="UTF-8"?> <svg xmlns="http://www.w3.org/2000/svg" width="85" height="81" viewBox="0 0 85 81" fill="none"><path fill-rule="evenodd" clip-rule="evenodd" d="M84.0071 61.6679C83.8083 60.5175 83.2437 59.4618 82.3971 58.6579C81.9508 58.2558 81.3856 58.0101 80.7871 57.9579H77.4621H71.3021C69.2721 57.9579 67.1021 57.9579 65.0021 58.2729H62.5521V54.3529V43.8529C62.6882 41.253 62.6882 38.6478 62.5521 36.0479C62.5332 35.413 62.3763 34.7898 62.0922 34.2216C61.8081 33.6535 61.4037 33.154 60.9071 32.7579C60.1854 32.394 59.4019 32.1684 58.5971 32.0929H54.7471C52.6121 31.9179 50.4421 31.8479 48.2721 31.8479L38.7871 32.0579L27.6571 32.8979C26.4879 32.88 25.3188 32.9385 24.1571 33.0729C23.4939 33.1759 22.8743 33.4675 22.3721 33.9129C21.6196 34.8531 21.234 36.0347 21.2871 37.2379C21.2871 39.8629 21.8471 44.2379 21.8821 45.1129C21.8821 49.0329 22.3021 53.7929 22.5121 58.6929H20.1321C17.9971 58.3429 16.0021 58.1679 14.0071 58.1679H8.05714C7.56714 58.1679 5.67714 57.9929 4.87214 58.1679C4.27368 58.2201 3.70852 58.4659 3.26214 58.8679C2.47933 59.6254 1.94271 60.6011 1.72214 61.6679C1.58188 62.8889 1.58188 64.1219 1.72214 65.3429L2.52714 77.7329C2.57815 78.0442 2.73815 78.3272 2.97857 78.5315C3.21899 78.7357 3.52418 78.8478 3.83964 78.8478C4.1551 78.8478 4.46029 78.7357 4.70072 78.5315C4.94114 78.3272 5.10114 78.0442 5.15214 77.7329L5.78214 65.0629C5.78214 60.2329 6.16714 62.4029 8.23214 62.2979L19.9921 61.1079H22.5121C22.5121 62.6479 22.5121 64.1529 22.6871 65.6579C22.6871 70.6279 22.9321 75.4229 22.6871 79.4129C22.6866 79.7167 22.8023 80.0093 23.0106 80.2305C23.2188 80.4518 23.5038 80.585 23.8071 80.6029C23.9571 80.6123 24.1074 80.5915 24.2492 80.5417C24.3909 80.4918 24.5212 80.414 24.6322 80.3127C24.7433 80.2115 24.8328 80.089 24.8955 79.9524C24.9582 79.8158 24.9927 79.6681 24.9971 79.5179C25.2421 75.4929 25.3821 70.6629 25.4171 65.5179V44.7979C25.4171 43.9579 24.9621 39.7929 25.1021 37.3429C26.0739 37.381 27.047 37.3224 28.0071 37.1679L38.8221 36.7829L48.2721 36.5729H54.4321L58.4221 36.7479C58.6868 39.2823 58.8037 41.8299 58.7721 44.3779C58.9471 47.4229 59.0171 50.9229 59.0871 54.6329C59.0871 62.8579 59.0871 72.1329 59.3671 78.7479C59.336 78.9382 59.3465 79.133 59.3981 79.3188C59.4498 79.5047 59.5412 79.677 59.666 79.824C59.7909 79.971 59.9462 80.089 60.1212 80.17C60.2962 80.251 60.4868 80.2929 60.6796 80.2929C60.8725 80.2929 61.063 80.251 61.2381 80.17C61.4131 80.089 61.5684 79.971 61.6933 79.824C61.8181 79.677 61.9095 79.5047 61.9611 79.3188C62.0127 79.133 62.0233 78.9382 61.9921 78.7479C61.9921 73.7779 62.2021 67.4429 62.3771 61.2479H64.9321L77.1821 62.4729C79.3871 62.4729 79.7721 60.3729 79.8421 65.2029L80.5071 78.0129C80.534 78.3532 80.6906 78.6703 80.9447 78.8983C81.1988 79.1263 81.5309 79.2479 81.8721 79.2379C82.0423 79.2289 82.209 79.1865 82.3627 79.113C82.5164 79.0395 82.6541 78.9364 82.7679 78.8096C82.8817 78.6828 82.9694 78.5348 83.0259 78.3741C83.0824 78.2133 83.1066 78.043 83.0971 77.8729L84.0071 65.4829C84.1778 64.2169 84.1778 62.9338 84.0071 61.6679Z" fill="#020202"></path><path fill-rule="evenodd" clip-rule="evenodd" d="M52.1572 68.6679C49.8405 68.2558 47.504 67.9637 45.1572 67.7929H44.1072C44.4572 64.2929 45.0522 60.7929 45.3322 57.0479C45.4374 55.171 45.4374 53.2897 45.3322 51.4129C45.2887 49.8915 45.0894 48.3786 44.7372 46.8979C44.4257 45.6946 43.8385 44.5802 43.0222 43.6429C43.0222 43.6429 41.4122 42.3479 40.2572 43.6429L38.9972 45.0429L35.2522 50.1879C35.1442 50.2923 35.0584 50.4174 34.9997 50.5557C34.9411 50.694 34.9109 50.8427 34.9109 50.9929C34.9109 51.1431 34.9411 51.2918 34.9997 51.4301C35.0584 51.5684 35.1442 51.6934 35.2522 51.7979C35.4678 52.0074 35.7566 52.1246 36.0572 52.1246C36.3578 52.1246 36.6466 52.0074 36.8622 51.7979L40.6072 48.0879C40.7741 49.3054 40.8443 50.5343 40.8172 51.7629L41.0622 68.0029C40.386 67.9669 39.7084 67.9669 39.0322 68.0029C36.7222 68.2829 34.5172 68.7729 32.0322 69.0529C31.7259 69.0529 31.4321 69.1746 31.2155 69.3912C30.9989 69.6078 30.8772 69.9016 30.8772 70.2079C30.8772 70.5142 30.9989 70.808 31.2155 71.0246C31.4321 71.2412 31.7259 71.3629 32.0322 71.3629C34.6632 71.7946 37.3153 72.0866 39.9772 72.2379C41.5172 72.2379 43.0922 72.2379 44.6672 72.0279C46.9772 71.8179 49.2522 71.4679 51.6672 71.3279C51.8401 71.3422 52.0142 71.3216 52.179 71.2673C52.3438 71.213 52.496 71.1261 52.6266 71.0119C52.7572 70.8976 52.8635 70.7582 52.9392 70.6021C53.0149 70.4459 53.0584 70.2762 53.0672 70.1029C53.1067 69.7951 53.0374 69.4832 52.8712 69.2211C52.7051 68.959 52.4525 68.7633 52.1572 68.6679Z" fill="#020202"></path><path fill-rule="evenodd" clip-rule="evenodd" d="M12.0822 23.3779C13.2022 23.3779 14.0072 19.6679 14.0072 19.6679C14.0589 19.3081 14.0589 18.9427 14.0072 18.5829C14.0414 18.1986 14.0414 17.8121 14.0072 17.4279C13.0272 13.2629 12.1522 13.5779 11.8022 13.6129C11.4522 13.6479 10.5772 13.6129 9.87716 17.5329C9.8409 17.8936 9.8409 18.2571 9.87716 18.6179C9.82594 18.9777 9.82594 19.343 9.87716 19.7029C9.87716 19.7029 10.9622 23.4129 12.0822 23.3779Z" fill="#27AE60"></path><path fill-rule="evenodd" clip-rule="evenodd" d="M62.5521 12.3879C63.0071 12.3879 63.8471 12.3879 64.6171 7.94289C64.6518 7.47687 64.6518 7.00891 64.6171 6.54289C64.6513 6.06516 64.6513 5.58561 64.6171 5.10789C63.7771 0.872886 63.1821 0.557885 62.3421 0.592885C61.5021 0.627885 61.0471 0.872886 60.4171 5.17789C60.277 6.10596 60.277 7.04981 60.4171 7.97789C61.2571 12.4579 62.0971 12.3879 62.5521 12.3879Z" fill="#27AE60"></path><path fill-rule="evenodd" clip-rule="evenodd" d="M11.7321 24.9179C10.6121 24.9179 9.66709 28.5929 9.66709 28.6629C9.63102 29.0354 9.63102 29.4104 9.66709 29.7829C9.61911 30.1547 9.61911 30.5311 9.66709 30.9029C10.6121 35.0679 11.4871 34.7529 11.8371 34.7529C12.1871 34.7529 13.0621 34.5779 13.7971 30.8329C13.8317 30.4604 13.8317 30.0854 13.7971 29.7129C13.8316 29.352 13.8316 28.9887 13.7971 28.6279C13.7971 28.6279 12.8521 24.8829 11.7321 24.9179Z" fill="#27AE60"></path><path fill-rule="evenodd" clip-rule="evenodd" d="M62.3071 26.6679C63.1471 26.6679 63.5671 26.3879 64.1971 22.0829C64.2299 21.6168 64.2299 21.149 64.1971 20.6829C64.2319 20.2169 64.2319 19.7489 64.1971 19.2829C63.3221 14.8029 62.5171 14.8729 62.0621 14.8729C61.6071 14.8729 60.7671 14.8729 59.9971 19.3179C59.9451 19.7831 59.9451 20.2527 59.9971 20.7179C59.9627 21.1956 59.9627 21.6752 59.9971 22.1529C60.8371 26.3879 61.4321 26.6679 62.3071 26.6679Z" fill="#27AE60"></path><path fill-rule="evenodd" clip-rule="evenodd" d="M17.7172 26.6679C18.0897 26.7025 18.4647 26.7025 18.8372 26.6679C19.2097 26.7042 19.5847 26.7042 19.9572 26.6679C24.1572 25.6879 23.8422 24.8129 23.8072 24.4629C23.7722 24.1129 23.8072 23.2379 19.8872 22.5029H18.8022C18.4297 22.4683 18.0547 22.4683 17.6822 22.5029C17.6822 22.5029 14.0072 23.4479 14.0072 24.5679C14.0072 25.6879 17.5072 26.6679 17.7172 26.6679Z" fill="#27AE60"></path><path fill-rule="evenodd" clip-rule="evenodd" d="M69.6571 16.1679C70.1223 16.2202 70.5919 16.2202 71.0571 16.1679C71.5231 16.2041 71.9911 16.2041 72.4571 16.1679C76.7271 15.3979 77.0421 14.8029 77.0071 13.9279C76.9721 13.0529 76.6921 12.6679 72.3871 12.0379C71.9328 12.0035 71.4765 12.0035 71.0221 12.0379C70.5569 11.9862 70.0873 11.9862 69.6221 12.0379C65.1421 12.8779 65.2121 13.6829 65.2121 14.1729C65.2121 14.6629 65.1421 15.4329 69.6571 16.1679Z" fill="#27AE60"></path><path fill-rule="evenodd" clip-rule="evenodd" d="M5.04714 25.9679C5.40552 26.0369 5.77377 26.0369 6.13214 25.9679C6.13214 25.9679 9.84214 24.9879 9.84214 23.8329C9.84214 22.6779 6.34214 21.8029 6.09714 21.7679C5.7257 21.7148 5.34859 21.7148 4.97714 21.7679C4.60557 21.7166 4.22871 21.7166 3.85714 21.7679C-0.342857 22.7129 0.00714286 23.5879 0.00714286 23.9729C0.00714286 24.3579 0.182143 25.1979 3.92714 25.8979C4.2975 25.9558 4.67245 25.9793 5.04714 25.9679Z" fill="#27AE60"></path><path fill-rule="evenodd" clip-rule="evenodd" d="M52.2271 15.2229C52.6931 15.2588 53.1611 15.2588 53.6271 15.2229H54.9921C59.5071 14.3829 59.5071 13.5429 59.5071 13.0879C59.5071 12.6329 59.5071 11.7929 55.0971 11.0229C54.6194 10.9882 54.1398 10.9882 53.6621 11.0229C53.1968 10.9717 52.7274 10.9717 52.2621 11.0229C48.0271 11.7929 47.6771 12.3879 47.7121 13.2279C47.7471 14.0679 47.9221 14.5929 52.2271 15.2229Z" fill="#27AE60"></path></svg> 