<?xml version="1.0" encoding="UTF-8"?> <svg xmlns="http://www.w3.org/2000/svg" width="75" height="75" viewBox="0 0 75 75" fill="none"><rect width="75" height="75" fill="#1E1E1E"></rect><g id="Home Page"><g clip-path="url(#clip0_1_8)"><mask id="path-1-inside-1_1_8" fill="white"><path d="M-559 -1254H749V916H-559V-1254Z"></path></mask><path d="M-559 -1254H749V916H-559V-1254Z" fill="white"></path><g id="Content Section"> </g><g id="Content Steps Container"><g id="Step Container"><g id="Plant-Decoration-Pot-Desk-Top-Interior-Indoor-1--Streamline-Freehand.svg" clip-path="url(#clip1_1_8)"><g id="Step Icon"><path id="Vector" d="M40.9915 18.4571C41.4053 20.6296 42.3819 22.6555 43.8238 24.3322C45.2658 26.009 47.1225 27.2781 49.2085 28.0125C52.6504 29.2707 56.3506 29.6557 59.9778 29.133C61.8835 28.7651 63.6819 27.9724 65.2392 26.8139C66.7965 25.6553 68.0727 24.1607 68.9729 22.4411C70.2158 19.8029 70.7213 16.8774 70.4358 13.9751C70.2199 11.2332 69.3673 8.57952 67.9458 6.225C66.9511 4.73146 65.6583 3.45982 64.1485 2.49C62.7242 1.50356 61.1313 0.786231 59.4486 0.373504C56.4768 -0.287219 53.3749 -0.0377652 50.5469 1.08938C47.0983 2.30432 44.2179 4.74661 42.4554 7.95009C40.693 11.1536 40.1718 14.8939 40.9915 18.4571ZM51.4184 3.39263C53.7924 2.55567 56.3644 2.458 58.795 3.1125C60.109 3.50185 61.3424 4.12383 62.4366 4.94888C63.5355 5.71645 64.476 6.6887 65.2068 7.81238C66.2753 9.81984 66.8714 12.0447 66.9498 14.3175C67.175 16.4977 66.8207 18.6987 65.9226 20.6981C65.2698 21.9907 64.3352 23.1203 63.1878 24.0037C62.0405 24.8871 60.7095 25.5019 59.293 25.8026C56.174 26.3544 52.9672 26.1299 49.9555 25.149C48.2978 24.6313 46.8061 23.6853 45.631 22.4065C44.456 21.1276 43.6394 19.5613 43.2636 17.8658C42.7882 16.3806 42.6244 14.8133 42.7826 13.2619C42.9409 11.7105 43.4176 10.2085 44.1831 8.84991C44.9486 7.49131 45.9863 6.30536 47.2313 5.36632C48.4763 4.42727 49.9017 3.75536 51.4184 3.39263Z" fill="#219653"></path><path id="Vector_2" d="M70.2178 39.9645C68.8484 39.7155 60.8803 39.6844 50.8892 39.8089C44.0106 39.8089 36.1982 40.0268 29.1017 40.1824C29.4441 39.9334 29.8176 39.7155 30.1911 39.4043C31.7047 38.107 32.7899 36.3816 33.3036 34.4554C33.5697 33.6574 33.6294 32.805 33.477 31.9777C33.3246 31.1504 32.9651 30.3752 32.4321 29.7244C31.3801 29.0033 30.1558 28.5738 28.8838 28.4794C26.8202 28.1881 24.742 28.0115 22.6588 27.9503L23.0946 26.5808C23.6635 26.4278 24.2161 26.2193 24.7442 25.9583C26.9093 24.7997 28.9895 23.4892 30.9692 22.0365C31.0933 21.9685 31.2025 21.8763 31.2904 21.7654C31.3782 21.6544 31.4429 21.527 31.4806 21.3906C31.5184 21.2542 31.5284 21.1116 31.51 20.9713C31.4917 20.831 31.4454 20.6958 31.3738 20.5737C31.2255 20.3345 30.9903 20.162 30.7176 20.0924C30.4449 20.0228 30.1558 20.0614 29.911 20.2002C28.8527 20.667 26.5495 21.4452 24.6197 22.161H24.4018C24.4018 21.7875 24.682 21.4452 24.8065 21.0094C25.1177 19.9823 25.4601 18.8618 25.7713 17.679V17.2744C26.0188 17.1798 26.2582 17.0653 26.4872 16.932C28.1369 15.936 30.5957 14.0374 31.7473 13.1348C31.8659 13.0612 31.9688 12.965 32.0501 12.8517C32.1315 12.7384 32.1897 12.6101 32.2215 12.4743C32.2533 12.3384 32.258 12.1976 32.2354 12.06C32.2128 11.9223 32.1633 11.7905 32.0897 11.6719C32.0162 11.5534 31.92 11.4505 31.8066 11.3691C31.6933 11.2878 31.565 11.2296 31.4292 11.1978C31.2934 11.166 31.1526 11.1612 31.0149 11.1839C30.8772 11.2065 30.7454 11.256 30.6268 11.3295C29.7553 11.7653 28.1991 12.4812 26.7362 13.1037C27.0141 11.3992 27.4411 9.72235 28.0123 8.09254C28.1886 7.88726 28.2796 7.62224 28.2665 7.35198C28.2534 7.08171 28.1373 6.82671 27.942 6.63941C27.7467 6.4521 27.4871 6.34671 27.2166 6.3449C26.946 6.34309 26.685 6.44499 26.4872 6.62967C25.3828 8.46502 24.4851 10.417 23.8105 12.45C22.3165 10.5825 20.449 8.46604 20.2933 8.18592C20.2551 8.06961 20.1937 7.9623 20.1127 7.8705C20.0317 7.7787 19.9329 7.70434 19.8222 7.65193C19.7116 7.59952 19.5914 7.57017 19.4691 7.56565C19.3468 7.56114 19.2248 7.58156 19.1106 7.62567C18.9932 7.66727 18.8852 7.73196 18.7932 7.81591C18.7011 7.89987 18.6268 8.0014 18.5746 8.11452C18.5224 8.22764 18.4934 8.35006 18.4892 8.47458C18.485 8.59909 18.5058 8.72319 18.5503 8.83954C19.3264 10.9016 20.2415 12.9086 21.2893 14.8467C21.6321 15.4708 22.0278 16.0643 22.4721 16.6208C22.1297 17.5857 21.5383 20.7604 21.2893 21.6942C20.3031 21.0267 19.3668 20.2881 18.4881 19.4843C17.3676 18.4883 15.9981 18.7684 16.5583 20.2002C17.5979 21.9796 18.7738 23.6758 20.0755 25.2735L20.449 25.6782L20.2 28.0125H17.4298C15.9047 28.0125 14.3173 28.0125 12.9478 28.1993C12.9613 28.1378 12.9613 28.0741 12.9478 28.0125C12.9478 28.0125 12.6055 24.4332 12.4498 22.9703C12.8174 22.4377 13.1401 21.8755 13.4147 21.2895C14.5099 18.7911 15.3342 16.1824 15.8736 13.5083C15.9106 13.3733 15.9195 13.2322 15.9 13.0936C15.8804 12.955 15.8328 12.8218 15.7599 12.7023C15.687 12.5828 15.5905 12.4795 15.4762 12.3986C15.362 12.3178 15.2324 12.2611 15.0955 12.2322C14.9626 12.1948 14.8236 12.1847 14.6867 12.2022C14.5498 12.2198 14.4178 12.2648 14.2987 12.3346C14.1796 12.4043 14.0758 12.4973 13.9934 12.6081C13.911 12.7188 13.8518 12.845 13.8193 12.9792C13.2601 14.4271 12.5943 15.8316 11.8273 17.181C11.8273 16.0294 11.4538 14.7844 11.1737 13.5083C11.1737 12.7613 10.8625 12.0454 10.7068 11.2984C11.2372 10.8507 11.6713 10.3001 11.983 9.67992C12.9427 7.53848 13.7843 5.34607 14.5041 3.11254C14.6307 2.86706 14.6594 2.58264 14.5843 2.31683C14.5092 2.05102 14.3359 1.82368 14.0995 1.68079C13.8472 1.54728 13.5525 1.51813 13.279 1.59962C13.0054 1.68111 12.7747 1.86673 12.6366 2.11654C12.2942 2.58342 11.3916 4.23304 10.4267 5.85154C10.1568 6.28022 9.9176 6.72747 9.71085 7.18992C9.0261 4.57542 8.4036 2.36554 8.12347 1.36954C8.15411 1.19741 8.14162 1.02036 8.08712 0.854235C8.03262 0.688106 7.93781 0.538069 7.81116 0.417534C7.68451 0.296998 7.52997 0.20972 7.36135 0.163501C7.19273 0.117281 7.01528 0.11356 6.84487 0.152671C6.67446 0.191781 6.5164 0.272504 6.38481 0.387624C6.25322 0.502745 6.1522 0.648676 6.09078 0.812374C6.02937 0.976072 6.00947 1.15244 6.03286 1.3257C6.05626 1.49897 6.12222 1.66374 6.22485 1.80529C6.22485 2.70792 6.56722 4.60654 6.84735 6.90979C5.01097 6.22504 3.11235 5.32242 1.46272 4.76217C1.23865 4.6632 0.985332 4.65316 0.754133 4.73408C0.522934 4.815 0.331166 4.98082 0.217721 5.19792C0.109333 5.4254 0.094239 5.68627 0.175668 5.92474C0.257096 6.16321 0.428585 6.36036 0.653471 6.47404C2.6766 7.71904 5.10435 9.83554 6.87847 10.9249L7.2831 11.1428L7.74997 14.2553C8.0301 16.0294 8.37247 17.7102 8.71485 19.1419L8.96385 20.0445L3.76597 18.675L2.83222 18.426C1.8051 18.426 1.58722 19.0174 1.61835 19.3598C1.60922 19.5892 1.68782 19.8134 1.83815 19.9868C1.98849 20.1603 2.19927 20.27 2.4276 20.2935C2.4276 20.2935 2.73885 20.2935 2.98785 20.5737C4.59152 21.5949 6.25445 22.5199 7.96785 23.3438C8.59954 23.6002 9.25693 23.788 9.92872 23.904C10.2711 25.2735 10.6757 27.0165 10.9247 27.9192C10.9574 28.0508 11.0098 28.1768 11.0803 28.2927C9.21285 28.2927 7.50097 28.635 6.19372 28.8529C4.97372 28.9654 3.80425 29.3945 2.8011 30.0979C2.40502 30.7022 2.14432 31.3851 2.03688 32.0996C1.92943 32.8141 1.97777 33.5434 2.1786 34.2375C2.51181 36.0778 3.32818 37.7965 4.5441 39.2175C5.23628 39.7669 5.98799 40.2367 6.7851 40.6182H6.4116C2.61435 41.2407 0.591221 43.575 0.684596 46.2207C0.735257 46.9807 0.93786 47.7229 1.28042 48.4033C1.62298 49.0837 2.09853 49.6884 2.67894 50.1818C3.25934 50.6751 3.93281 51.047 4.65949 51.2755C5.38617 51.504 6.1513 51.5844 6.9096 51.5119L12.0452 51.6675C11.4538 52.8192 10.4267 54.78 9.2751 57.1455C8.9016 57.9237 8.49697 58.764 8.12347 59.6044C7.74997 60.4448 7.12747 62.1567 6.69172 63.4328C5.51481 66.7513 4.58883 70.1535 3.9216 73.6107C3.9216 73.8913 4.03309 74.1605 4.23155 74.359C4.43001 74.5574 4.69918 74.6689 4.97985 74.6689C5.26051 74.6689 5.52968 74.5574 5.72814 74.359C5.9266 74.1605 6.0381 73.8913 6.0381 73.6107C6.0381 73.1438 8.09235 69.1909 9.99097 64.6778C9.99097 64.3043 10.2711 63.9308 10.3956 63.5573C17.2431 63.5573 24.6509 63.993 31.9652 64.0553H45.4112C53.0057 64.0553 59.8843 63.744 65.0511 63.744L65.4246 64.6467C67.3232 69.1909 69.3152 73.1438 69.3775 73.6107C69.3775 73.8913 69.489 74.1605 69.6874 74.359C69.8859 74.5574 70.1551 74.6689 70.4357 74.6689C70.7164 74.6689 70.9856 74.5574 71.184 74.359C71.3825 74.1605 71.494 73.8913 71.494 73.6107C70.8245 70.1438 69.8986 66.7314 68.7238 63.4017C68.2881 62.1255 67.7901 60.8494 67.261 59.6044C66.7318 58.3594 66.514 57.9237 66.1405 57.1144C65.269 55.3092 64.4597 53.7529 63.8372 52.6013C65.8915 52.6013 67.6033 52.3834 68.8172 52.2278C70.2635 52.1128 71.6241 51.4962 72.6641 50.4847C73.7041 49.4731 74.3581 48.13 74.5131 46.6875C74.7881 45.2307 74.4967 43.7238 73.6985 42.4744C72.9003 41.225 71.6554 40.3273 70.2178 39.9645ZM6.22485 37.35C5.6347 36.4837 5.25135 35.4933 5.10435 34.4554C4.94462 33.8144 4.87134 33.155 4.88647 32.4945C4.87066 32.3914 4.87066 32.2864 4.88647 32.1833C5.48475 31.9152 6.12981 31.7672 6.7851 31.7475C10.3659 31.4361 13.961 31.3218 17.5543 31.4052C21.0479 31.4016 24.5391 31.5886 28.0123 31.9654C28.8527 31.9654 29.8487 32.3389 29.8487 32.5568C29.8275 33.3822 29.6479 34.1958 29.3196 34.9534C29.0295 35.7718 28.5618 36.5159 27.9501 37.1322C27.4728 37.6173 26.9007 37.9987 26.2693 38.2527C25.1369 38.6009 23.9663 38.8099 22.7833 38.8752C21.694 38.8752 20.0132 39.1242 18.2391 39.1864C14.9358 39.4029 11.6189 39.2778 8.34135 38.8129C7.54748 38.4675 6.82857 37.9706 6.22485 37.35ZM64.1485 60.8494C64.245 61.0619 64.3282 61.2802 64.3975 61.503C59.4486 61.1918 53.1614 60.8494 46.1894 60.6315H37.7545C34.891 60.6315 32.152 60.6315 29.3196 60.7872C23.0946 60.9739 17.0875 61.3785 11.3605 61.7209L11.6406 61.0362C11.9207 60.1647 12.2008 59.2932 12.4498 58.4528C13.2902 55.6515 13.9127 53.3172 14.2862 52.2278V51.9165C23.0635 52.2589 37.9101 52.8192 50.1734 52.8814H61.5962C61.9697 54.1264 62.53 55.9939 63.2458 58.4839C63.4637 59.1375 63.7127 59.9157 64.024 60.8183L64.1485 60.8494ZM71.1205 46.2207C71.0185 46.8592 70.7056 47.4452 70.2317 47.8852C69.7579 48.3253 69.1503 48.5939 68.506 48.6484C65.3935 49.0842 58.3281 49.2087 50.2667 49.2709C32.7122 49.4577 9.80422 49.2709 7.06522 49.2709C6.58453 49.3458 6.09374 49.3245 5.62136 49.2082C5.14898 49.0918 4.70441 48.8828 4.31348 48.5932C3.92256 48.3037 3.59306 47.9393 3.34411 47.5213C3.09517 47.1034 2.93175 46.6401 2.86335 46.1584C2.5521 41.3029 5.38447 42.579 51.0448 43.0459C60.6313 43.0459 68.3503 43.2327 69.7198 43.5128C71.0893 43.7929 71.1516 45.0068 70.996 46.1895L71.1205 46.2207Z" fill="#333333"></path></g></g></g></g></g><path d="M-559 916H-553V-1254H-559H-565V916H-559Z" fill="#27AE60" mask="url(#path-1-inside-1_1_8)"></path></g><defs><clipPath id="clip0_1_8"><path d="M-559 -1254H749V916H-559V-1254Z" fill="white"></path></clipPath><clipPath id="clip1_1_8"><rect width="74.7" height="74.7" fill="white"></rect></clipPath></defs></svg> 